<svg width="20" height="20" viewBox="0 0 20 20" fill="none" xmlns="http://www.w3.org/2000/svg">
<mask id="mask0_10502_141311" style="mask-type:luminance" maskUnits="userSpaceOnUse" x="0" y="0" width="20" height="20">
<path d="M20 0H0V20H20V0Z" fill="white"/>
</mask>
<g mask="url(#mask0_10502_141311)">
<path fill-rule="evenodd" clip-rule="evenodd" d="M9.58327 12.4342C10.1852 12.4342 10.7812 12.3157 11.3372 12.0854C11.8933 11.855 12.3986 11.5174 12.8242 11.0918C13.2498 10.6662 13.5874 10.161 13.8177 9.60488C14.048 9.0488 14.1666 8.4528 14.1666 7.85091V2.01758C15.0861 2.63449 15.8576 3.44734 16.4257 4.39778C16.9938 5.34821 17.3444 6.41265 17.4523 7.51465C17.5602 8.61665 17.4228 9.72888 17.0499 10.7715C16.677 11.8141 16.0779 12.7612 15.2956 13.5448C14.5132 14.3283 13.5671 14.929 12.5251 15.3035C11.4831 15.6781 10.3711 15.8173 9.26893 15.7111C8.16675 15.605 7.10176 15.2561 6.15042 14.6895C5.19907 14.1229 4.38498 13.3528 3.7666 12.4342H9.58327Z" fill="#D6D9FF"/>
<path fill-rule="evenodd" clip-rule="evenodd" d="M2.99147 18.4755C3.25474 18.7401 3.5677 18.95 3.91235 19.0933C4.257 19.2365 4.62656 19.3103 4.9998 19.3103C5.37304 19.3103 5.7426 19.2365 6.08725 19.0933C6.4319 18.95 6.74486 18.7401 7.00813 18.4755L9.7998 15.6839C9.88963 15.5949 9.95803 15.4866 9.9998 15.3672C10.0416 15.4866 10.11 15.5949 10.1998 15.6839L12.9915 18.4755C13.2547 18.7401 13.5677 18.95 13.9123 19.0933C14.257 19.2365 14.6266 19.3103 14.9998 19.3103C15.373 19.3103 15.7426 19.2365 16.0873 19.0933C16.4319 18.95 16.7449 18.7401 17.0081 18.4755L18.3331 17.1505C18.8659 16.6163 19.1651 15.8926 19.1651 15.138C19.1651 14.3835 18.8659 13.6598 18.3331 13.1255L16.3831 11.1839C16.3084 11.0966 16.2165 11.0258 16.1131 10.9758C16.0097 10.9257 15.8971 10.8976 15.7823 10.8932C15.6676 10.8888 15.5531 10.9081 15.4462 10.95C15.3393 10.9919 15.2421 11.0554 15.1609 11.1367C15.0797 11.2179 15.0162 11.315 14.9743 11.4219C14.9324 11.5289 14.913 11.6433 14.9175 11.7581C14.9219 11.8728 14.95 11.9855 15 12.0888C15.05 12.1922 15.1209 12.2842 15.2081 12.3589L17.1581 14.3089C17.2671 14.4185 17.3534 14.5485 17.412 14.6915C17.4706 14.8345 17.5005 14.9877 17.4998 15.1422C17.4976 15.4536 17.3752 15.7522 17.1581 15.9755L15.8331 17.2922C15.7245 17.403 15.5948 17.4911 15.4517 17.5512C15.3086 17.6113 15.155 17.6422 14.9998 17.6422C14.6867 17.6404 14.387 17.5145 14.1665 17.2922L11.3748 14.5005C11.2187 14.3453 11.0075 14.2582 10.7873 14.2582C10.5671 14.2582 10.3559 14.3453 10.1998 14.5005C10.11 14.5895 10.0416 14.6978 9.9998 14.8172C9.95803 14.6978 9.88963 14.5895 9.7998 14.5005C9.64367 14.3453 9.43246 14.2582 9.2123 14.2582C8.99215 14.2582 8.78094 14.3453 8.6248 14.5005L5.83313 17.2922C5.72449 17.403 5.59483 17.4911 5.45174 17.5512C5.30865 17.6113 5.155 17.6422 4.9998 17.6422C4.68665 17.6404 4.38699 17.5145 4.16647 17.2922L2.84147 15.9755C2.62444 15.7522 2.50204 15.4536 2.4998 15.1422C2.49915 14.9877 2.52899 14.8345 2.58762 14.6915C2.64625 14.5485 2.73251 14.4185 2.84147 14.3089L4.79147 12.3589C4.92799 12.1994 4.99933 11.9944 4.99123 11.7847C4.98313 11.5749 4.89618 11.376 4.74777 11.2276C4.59936 11.0791 4.40041 10.9922 4.19068 10.9841C3.98095 10.976 3.77589 11.0473 3.61647 11.1839L1.66647 13.1255C1.13367 13.6598 0.834473 14.3835 0.834473 15.138C0.834473 15.8926 1.13367 16.6163 1.66647 17.1505L2.99147 18.4755Z" fill="#7694FF"/>
</g>
<path fill-rule="evenodd" clip-rule="evenodd" d="M10 2.43322C9.76963 2.42056 9.53873 2.42056 9.30834 2.43322C8.40022 2.54172 7.53032 2.86224 6.7689 3.36889C6.00747 3.87555 5.37584 4.55414 4.92501 5.34989C4.42209 6.23729 4.16066 7.24106 4.16678 8.26104C4.17291 9.28103 4.44637 10.2816 4.95991 11.1629C5.47344 12.0442 6.20909 12.7754 7.09346 13.2837C7.97783 13.7919 8.98 14.0594 10 14.0594C11.02 14.0594 12.0222 13.7919 12.9066 13.2837C13.7909 12.7754 14.5266 12.0442 15.0401 11.1629C15.5536 10.2816 15.8271 9.28103 15.8332 8.26104C15.8394 7.24106 15.5779 6.23729 15.075 5.34989C14.6165 4.56657 13.9815 3.90106 13.2205 3.4063C12.4596 2.91153 11.5937 2.60117 10.6917 2.49989C10.4613 2.48722 10.2304 2.48722 10 2.49989V2.43322ZM9.11668 0.833221C9.70368 0.766531 10.2963 0.766531 10.8833 0.833221C12.7826 1.05847 14.524 2.00078 15.7515 3.46743C16.979 4.93408 17.5998 6.81426 17.4869 8.72346C17.3741 10.6327 16.5362 12.4266 15.1445 13.7385C13.7528 15.0504 11.9125 15.781 10 15.781C8.08748 15.781 6.24719 15.0504 4.85551 13.7385C3.46383 12.4266 2.62589 10.6327 2.51307 8.72346C2.40025 6.81426 3.02106 4.93408 4.24855 3.46743C5.47603 2.00078 7.21745 1.05847 9.11668 0.833221Z" fill="#2264DC"/>
<path fill-rule="evenodd" clip-rule="evenodd" d="M8.64178 11.1921C8.55693 11.2515 8.45572 11.2831 8.35213 11.2825C8.24855 11.2819 8.1477 11.2491 8.06353 11.1888C7.97937 11.1284 7.91603 11.0433 7.88228 10.9454C7.84852 10.8475 7.84602 10.7415 7.87511 10.6421L8.33345 8.9004L7.00845 7.68373C6.93826 7.61509 6.88909 7.52788 6.86667 7.43231C6.84426 7.33674 6.84954 7.23676 6.88189 7.14408C6.91424 7.05139 6.97233 6.96985 7.04935 6.90898C7.12637 6.84811 7.21913 6.81045 7.31678 6.8004L9.02511 6.66706L9.70845 4.93373C9.74779 4.84262 9.81295 4.76503 9.89588 4.71052C9.9788 4.656 10.0759 4.62695 10.1751 4.62695C10.2744 4.62695 10.3714 4.656 10.4543 4.71052C10.5373 4.76503 10.6024 4.84262 10.6418 4.93373L11.3834 6.5504L13.1584 6.7254C13.257 6.7362 13.3503 6.77561 13.4268 6.83878C13.5033 6.90195 13.5596 6.98611 13.5889 7.0809C13.6181 7.17568 13.6189 7.27695 13.5913 7.37222C13.5637 7.46749 13.5088 7.5526 13.4334 7.61706L12.0168 8.8254L12.4501 10.4921C12.4749 10.5878 12.4713 10.6888 12.4396 10.7825C12.4079 10.8762 12.3496 10.9586 12.2717 11.0197C12.1939 11.0807 12.0999 11.1177 12.0013 11.1261C11.9027 11.1345 11.8039 11.114 11.7168 11.0671L10.1334 10.2337L8.64178 11.1921Z" fill="#FF7A00"/>
</svg>
