<svg width="33" height="32" viewBox="0 0 33 32" fill="none" xmlns="http://www.w3.org/2000/svg">
<mask id="mask0_11237_36572" style="mask-type:luminance" maskUnits="userSpaceOnUse" x="0" y="0" width="33" height="32">
<path d="M32.5 0H0.5V32H32.5V0Z" fill="white"/>
</mask>
<g mask="url(#mask0_11237_36572)">
<path fill-rule="evenodd" clip-rule="evenodd" d="M15.7397 22.5067C17.6681 22.5067 19.5178 21.7415 20.8827 20.3791C22.2476 19.0167 23.0161 17.1685 23.0197 15.24V6C24.363 6.89741 25.5097 8.05882 26.3899 9.41352C27.2702 10.7682 27.8655 12.2879 28.1397 13.88C28.2063 14.2267 29.2997 13.9467 29.3263 14.3067C29.353 14.6667 30.0063 15.64 30.0063 16C30.0063 16.36 29.113 17.4933 29.0863 17.8533C29.0597 18.2133 28.1663 17.8533 28.073 18.2533C27.6644 20.2789 26.7352 22.1631 25.3768 23.7202C24.0184 25.2773 22.2777 26.4537 20.3263 27.1333C19.393 27.4667 19.0597 28.84 18.0463 28.9333C17.713 28.9333 16.2997 29.12 15.9663 29.12C15.633 29.12 14.4463 27.3733 14.2063 27.3333C12.6526 27.1166 11.1619 26.5747 9.83173 25.7431C8.50151 24.9114 7.36159 23.8086 6.48633 22.5067H15.7397Z" fill="#D9DDE5"/>
<path d="M15.2462 25.1478C14.523 25.0667 13.8143 24.8873 13.1396 24.6145C11.9677 24.1546 10.9033 23.4578 10.0131 22.5676C9.12293 21.6774 8.42609 20.6131 7.96622 19.4412C7.68317 18.7691 7.49903 18.0595 7.41956 17.3345C7.10497 17.7235 6.65355 17.9775 6.15776 18.0444C5.66198 18.1113 5.15936 17.9862 4.75289 17.6945C4.84844 18.4714 5.02724 19.2358 5.28622 19.9745C5.87649 21.6453 6.82944 23.1646 8.07664 24.4233C9.32383 25.682 10.8343 26.6489 12.4996 27.2545C13.2382 27.5135 14.0026 27.6923 14.7796 27.7878C14.4879 27.3814 14.3627 26.8788 14.4296 26.383C14.4966 25.8872 14.7506 25.4358 15.1396 25.1212L15.2462 25.1478ZM14.8862 6.48117C14.6483 6.14649 14.5223 5.74513 14.5262 5.3345C14.5233 4.92606 14.6545 4.52793 14.8996 4.20117C14.118 4.29515 13.349 4.47399 12.6062 4.7345H12.4996C10.8283 5.33372 9.31077 6.29633 8.05648 7.55293C6.80219 8.80952 5.84237 10.3288 5.24622 12.0012C4.98571 12.744 4.80687 13.513 4.71289 14.2945C5.04809 14.0881 5.44064 13.9946 5.83289 14.0278C6.291 14.0268 6.7348 14.1873 7.08622 14.4812C7.18484 14.5598 7.27429 14.6492 7.35289 14.7478C7.43402 14.0246 7.61345 13.3159 7.88622 12.6412C8.34288 11.4568 9.04103 10.3805 9.93627 9.48069C10.8315 8.58086 11.9042 7.87721 13.0862 7.4145C13.7609 7.14173 14.4697 6.9623 15.1929 6.88117C15.0662 6.76332 14.9623 6.62322 14.8862 6.46784V6.48117ZM27.1662 17.9745C26.8839 17.9818 26.6033 17.9285 26.3434 17.8181C26.0835 17.7077 25.8503 17.5428 25.6596 17.3345C25.5818 18.0555 25.3976 18.7609 25.1129 19.4278C24.6479 20.5973 23.9476 21.6588 23.0554 22.5464C22.1632 23.4341 21.0981 24.1289 19.9262 24.5878C19.2515 24.8606 18.5428 25.04 17.8196 25.1212C18.2086 25.4358 18.4625 25.8872 18.5295 26.383C18.5964 26.8788 18.4712 27.3814 18.1796 27.7878C18.9565 27.6923 19.7209 27.5135 20.4596 27.2545C22.1393 26.6634 23.6665 25.7058 24.9303 24.4513C26.1941 23.1967 27.1628 21.6766 27.7662 20.0012C28.0267 19.2584 28.2056 18.4894 28.2996 17.7078C27.9588 17.9127 27.5626 18.006 27.1662 17.9745ZM27.7796 12.1078C27.1924 10.4155 26.2338 8.87601 24.974 7.60243C23.7143 6.32885 22.1854 5.35347 20.4996 4.74784C19.7567 4.48732 18.9878 4.30849 18.2062 4.21451C18.4513 4.54126 18.5825 4.93939 18.5796 5.34784C18.5807 5.75392 18.4548 6.15019 18.2196 6.48117C18.1223 6.62537 18.0057 6.75548 17.8729 6.86784C18.5921 6.94749 19.2966 7.127 19.9662 7.40117C21.1381 7.86011 22.2032 8.55495 23.0954 9.44257C23.9876 10.3302 24.6879 11.3917 25.1529 12.5612C25.4286 13.2349 25.6081 13.9441 25.6862 14.6678C25.7638 14.5768 25.8486 14.4921 25.9396 14.4145C26.291 14.1206 26.7348 13.9601 27.1929 13.9612C27.6068 13.9631 28.009 14.0987 28.3396 14.3478C28.2383 13.5824 28.0504 12.8309 27.7796 12.1078Z" fill="#868E9C"/>
<path fill-rule="evenodd" clip-rule="evenodd" d="M19.8602 24.6148C19.5064 24.05 19.0149 23.5844 18.4319 23.2616C17.8488 22.9389 17.1933 22.7695 16.5269 22.7695C15.8604 22.7695 15.2049 22.9389 14.6219 23.2616C14.0388 23.5844 13.5473 24.05 13.1935 24.6148C12.7707 25.2188 12.5301 25.9315 12.5002 26.6681C12.4804 26.8676 12.4804 27.0686 12.5002 27.2681C12.707 28.1454 13.2039 28.9272 13.9106 29.4867C14.6173 30.0461 15.4922 30.3506 16.3935 30.3506C17.2949 30.3506 18.1698 30.0461 18.8764 29.4867C19.5831 28.9272 20.0801 28.1454 20.2869 27.2681C20.3788 27.0762 20.4503 26.8751 20.5002 26.6681C20.4861 25.9368 20.2641 25.2246 19.8602 24.6148ZM16.5002 28.6148C16.0583 28.6153 15.6289 28.4674 15.2811 28.1948C14.9332 27.9223 14.6869 27.5408 14.5816 27.1116C14.4763 26.6824 14.5181 26.2302 14.7004 25.8276C14.8827 25.425 15.1948 25.0953 15.5868 24.8912C15.9788 24.6871 16.4279 24.6205 16.8623 24.702C17.2966 24.7836 17.691 25.0086 17.9823 25.341C18.2735 25.6734 18.4448 26.0939 18.4686 26.5352C18.4924 26.9765 18.3673 27.413 18.1135 27.7748C17.9355 28.0397 17.6955 28.2571 17.4143 28.4082C17.1331 28.5592 16.8193 28.6393 16.5002 28.6415V28.6148Z" fill="#C0C7D4"/>
<path fill-rule="evenodd" clip-rule="evenodd" d="M20.3935 4.73415C20.3189 4.21786 20.1372 3.72285 19.8602 3.28082C19.5064 2.71604 19.0149 2.25042 18.4319 1.92765C17.8488 1.60488 17.1933 1.43555 16.5269 1.43555C15.8604 1.43555 15.2049 1.60488 14.6219 1.92765C14.0388 2.25042 13.5473 2.71604 13.1935 3.28082C12.9165 3.72285 12.7349 4.21786 12.6602 4.73415C12.5865 4.92817 12.5329 5.12922 12.5002 5.33415C12.4804 5.53366 12.4804 5.73464 12.5002 5.93415C12.5767 6.44997 12.7582 6.9446 13.0335 7.38749C13.3873 7.95226 13.8788 8.41789 14.4619 8.74066C15.0449 9.06343 15.7004 9.23276 16.3669 9.23276C17.0333 9.23276 17.6888 9.06343 18.2719 8.74066C18.8549 8.41789 19.3464 7.95226 19.7002 7.38749C19.9755 6.9446 20.157 6.44997 20.2335 5.93415C20.3438 5.74437 20.4332 5.54319 20.5002 5.33415C20.4848 5.13108 20.4491 4.93007 20.3935 4.73415ZM16.5002 7.30749C16.0421 7.30855 15.5983 7.14803 15.2469 6.85415C15.1036 6.74904 14.9815 6.61786 14.8869 6.46748C14.6516 6.1365 14.5257 5.74023 14.5269 5.33415C14.524 4.9257 14.6551 4.52758 14.9002 4.20082C14.9939 4.05391 15.111 3.9233 15.2469 3.81415C15.5989 3.52136 16.0423 3.36105 16.5002 3.36105C16.9581 3.36105 17.4015 3.52136 17.7535 3.81415C17.8894 3.9233 18.0065 4.05391 18.1002 4.20082C18.3453 4.52758 18.4764 4.9257 18.4735 5.33415C18.4747 5.74023 18.3488 6.1365 18.1135 6.46748C18.0163 6.61169 17.8996 6.7418 17.7669 6.85415C17.4102 7.14798 16.9623 7.30829 16.5002 7.30749Z" fill="#C0C7D4"/>
<path fill-rule="evenodd" clip-rule="evenodd" d="M9.1932 13.9478C8.86693 13.3991 8.40857 12.9408 7.85986 12.6145C7.25484 12.2248 6.55277 12.0123 5.8332 12.0012C5.63369 11.9814 5.43271 11.9814 5.2332 12.0012C4.66575 12.0848 4.1239 12.2932 3.64665 12.6114C3.16941 12.9295 2.76864 13.3495 2.4732 13.8412C2.04946 14.4813 1.8266 15.2335 1.8332 16.0012C1.81341 16.2007 1.81341 16.4017 1.8332 16.6012C1.95383 17.4318 2.33963 18.2011 2.93311 18.7946C3.52658 19.3881 4.29595 19.7739 5.12653 19.8945C5.35707 19.9577 5.59427 19.9935 5.8332 20.0012C6.77167 19.9887 7.67589 19.6467 8.38763 19.0349C9.09937 18.4231 9.57332 17.5805 9.72653 16.6545C9.78576 16.4413 9.82153 16.2222 9.8332 16.0012C9.81907 15.2699 9.59709 14.5577 9.1932 13.9478ZM5.8332 17.9745C5.42712 17.9756 5.03085 17.8498 4.69986 17.6145C4.51434 17.4822 4.35213 17.32 4.21986 17.1345C3.92821 16.728 3.80302 16.2254 3.86995 15.7296C3.93688 15.2338 4.19086 14.7824 4.57986 14.4678L4.69986 14.3878C5.02738 14.1457 5.42599 14.0191 5.8332 14.0278C6.2913 14.0268 6.73511 14.1873 7.08653 14.4812C7.18515 14.5598 7.2746 14.6492 7.3532 14.7478C7.62956 15.0798 7.78853 15.4937 7.80541 15.9253C7.82228 16.3569 7.69612 16.782 7.44653 17.1345L7.3532 17.2545C7.17043 17.4812 6.9388 17.6638 6.67559 17.7884C6.41239 17.9131 6.12443 17.9767 5.8332 17.9745Z" fill="#C0C7D4"/>
<path fill-rule="evenodd" clip-rule="evenodd" d="M30.5262 13.9467C30.2329 13.456 29.8344 13.0365 29.3594 12.7183C28.8845 12.4002 28.3449 12.1913 27.7795 12.1067C27.5792 12.0506 27.3737 12.0148 27.1662 12C26.4464 11.9995 25.7404 12.1979 25.1262 12.5733C24.5764 12.8982 24.1178 13.3569 23.7929 13.9067C23.3864 14.5294 23.1687 15.2564 23.1662 16C23.1464 16.1995 23.1464 16.4005 23.1662 16.6C23.2944 17.5611 23.7742 18.4405 24.513 19.0685C25.2518 19.6964 26.197 20.0283 27.1662 20C27.3701 20.0203 27.5756 20.0203 27.7795 20C28.6069 19.8747 29.3721 19.4871 29.9626 18.8942C30.5531 18.3013 30.9376 17.5345 31.0595 16.7067C31.1228 16.4761 31.1586 16.2389 31.1662 16C31.1521 15.2687 30.9301 14.5565 30.5262 13.9467ZM28.7795 17.1333C28.659 17.3204 28.4999 17.4795 28.3129 17.6C27.9811 17.8452 27.5788 17.9762 27.1662 17.9733C26.8839 17.9807 26.6033 17.9273 26.3434 17.8169C26.0835 17.7065 25.8503 17.5416 25.6595 17.3333L25.5529 17.1867C25.3019 16.8315 25.1761 16.4029 25.1954 15.9684C25.2147 15.5339 25.378 15.1182 25.6595 14.7867C25.7372 14.6957 25.8219 14.611 25.9129 14.5333C26.2643 14.2395 26.7081 14.0789 27.1662 14.08C27.5801 14.0819 27.9823 14.2175 28.3129 14.4667H28.4195C28.8085 14.7813 29.0625 15.2327 29.1295 15.7285C29.1964 16.2242 29.0712 16.7269 28.7795 17.1333Z" fill="#C0C7D4"/>
</g>
</svg>
