<svg width="20" height="20" viewBox="0 0 20 20" fill="none" xmlns="http://www.w3.org/2000/svg">
<mask id="mask0_11222_16496" style="mask-type:luminance" maskUnits="userSpaceOnUse" x="0" y="0" width="20" height="20">
<path d="M20 0H0V20H20V0Z" fill="white"/>
</mask>
<g mask="url(#mask0_11222_16496)">
<path fill-rule="evenodd" clip-rule="evenodd" d="M14.9083 5.09155C15.0011 5.18303 15.0747 5.29201 15.1249 5.41218C15.1752 5.53235 15.2011 5.6613 15.2011 5.79155C15.2011 5.9218 15.1752 6.05075 15.1249 6.17092C15.0747 6.29109 15.0011 6.40007 14.9083 6.49155L6.49167 14.9082C6.30262 15.0762 6.05653 15.1656 5.80373 15.1582C5.55094 15.1508 5.31053 15.047 5.1317 14.8682C4.95287 14.6894 4.84912 14.4489 4.84168 14.1961C4.83424 13.9433 4.92366 13.6973 5.09167 13.5082L13.5083 5.09155C13.5998 4.99883 13.7088 4.92521 13.829 4.87496C13.9491 4.8247 14.0781 4.79883 14.2083 4.79883C14.3386 4.79883 14.4675 4.8247 14.5877 4.87496C14.7079 4.92521 14.8169 4.99883 14.9083 5.09155Z" fill="#868E9C"/>
<path fill-rule="evenodd" clip-rule="evenodd" d="M5.09167 5.09155C5.18315 4.99883 5.29213 4.92521 5.4123 4.87496C5.53247 4.8247 5.66142 4.79883 5.79167 4.79883C5.92192 4.79883 6.05087 4.8247 6.17104 4.87496C6.29121 4.92521 6.40019 4.99883 6.49167 5.09155L14.9083 13.5082C15.0763 13.6973 15.1658 13.9433 15.1583 14.1961C15.1509 14.4489 15.0471 14.6894 14.8683 14.8682C14.6895 15.047 14.4491 15.1508 14.1963 15.1582C13.9435 15.1656 13.6974 15.0762 13.5083 14.9082L5.09167 6.49155C4.99895 6.40007 4.92533 6.29109 4.87508 6.17092C4.82483 6.05075 4.79895 5.9218 4.79895 5.79155C4.79895 5.6613 4.82483 5.53235 4.87508 5.41218C4.92533 5.29201 4.99895 5.18303 5.09167 5.09155Z" fill="#C0C7D4"/>
</g>
</svg>
