<svg width="24" height="24" viewBox="0 0 24 24" fill="none" xmlns="http://www.w3.org/2000/svg">
<path fill-rule="evenodd" clip-rule="evenodd" d="M6 1H4C3.20435 1 2.44129 1.31607 1.87868 1.87868C1.31607 2.44129 1 3.20435 1 4V20C1 20.7956 1.31607 21.5587 1.87868 22.1213C2.44129 22.6839 3.20435 23 4 23H20C20.7956 23 21.5587 22.6839 22.1213 22.1213C22.6839 21.5587 23 20.7956 23 20V19H7C6.73478 19 6.48043 18.8946 6.29289 18.7071C6.10536 18.5196 6 18.2652 6 18V1Z" fill="#D6D9FF"/>
<path fill-rule="evenodd" clip-rule="evenodd" d="M1 4C1 3.20435 1.31607 2.44129 1.87868 1.87868C2.44129 1.31607 3.20435 1 4 1H13C13.2652 1 13.5196 1.10536 13.7071 1.29289C13.8946 1.48043 14 1.73478 14 2C14 2.26522 13.8946 2.51957 13.7071 2.70711C13.5196 2.89464 13.2652 3 13 3H4C3.73478 3 3.48043 3.10536 3.29289 3.29289C3.10536 3.48043 3 3.73478 3 4V20C3 20.2652 3.10536 20.5196 3.29289 20.7071C3.48043 20.8946 3.73478 21 4 21H20C20.2652 21 20.5196 20.8946 20.7071 20.7071C20.8946 20.5196 21 20.2652 21 20V12C21 11.7348 21.1054 11.4804 21.2929 11.2929C21.4804 11.1054 21.7348 11 22 11C22.2652 11 22.5196 11.1054 22.7071 11.2929C22.8946 11.4804 23 11.7348 23 12V20C23 20.7956 22.6839 21.5587 22.1213 22.1213C21.5587 22.6839 20.7956 23 20 23H4C3.20435 23 2.44129 22.6839 1.87868 22.1213C1.31607 21.5587 1 20.7956 1 20V4Z" fill="#2264DC"/>
<path fill-rule="evenodd" clip-rule="evenodd" d="M19.53 3.29041C19.3427 3.10416 19.0892 2.99962 18.825 2.99962C18.5608 2.99962 18.3074 3.10416 18.12 3.29041L9.00002 12.4104V15.0004H11.59L20.7 5.88041C20.7937 5.78745 20.8681 5.67685 20.9189 5.55499C20.9697 5.43313 20.9958 5.30242 20.9958 5.17041C20.9958 5.0384 20.9697 4.90769 20.9189 4.78584C20.8681 4.66398 20.7937 4.55337 20.7 4.46041L19.53 3.29041ZM16.7 1.88041C16.9787 1.60073 17.3099 1.37882 17.6746 1.22741C18.0392 1.07599 18.4302 0.998047 18.825 0.998047C19.2199 0.998047 19.6108 1.07599 19.9755 1.22741C20.3401 1.37882 20.6713 1.60073 20.95 1.88041L22.12 3.05041C22.6818 3.61291 22.9974 4.37541 22.9974 5.17041C22.9974 5.96541 22.6818 6.72791 22.12 7.29041L12.71 16.7104C12.6166 16.8031 12.5058 16.8764 12.3839 16.9262C12.2621 16.9759 12.1316 17.0012 12 17.0004H8.00002C7.7348 17.0004 7.48045 16.8951 7.29291 16.7075C7.10537 16.52 7.00002 16.2656 7.00002 16.0004V12.0004C6.99926 11.8688 7.02448 11.7383 7.07425 11.6165C7.12401 11.4947 7.19734 11.3839 7.29002 11.2904L16.7 1.88041Z" fill="#FF7A00"/>
</svg>
