<svg width="20" height="20" viewBox="0 0 20 20" fill="none" xmlns="http://www.w3.org/2000/svg">
<path fill-rule="evenodd" clip-rule="evenodd" d="M9.99984 6.87499C8.27395 6.87499 6.87484 8.27411 6.87484 9.99999C6.87484 11.7259 8.27395 13.125 9.99984 13.125C11.7257 13.125 13.1248 11.7259 13.1248 9.99999C13.1248 8.27411 11.7257 6.87499 9.99984 6.87499ZM8.12484 9.99999C8.12484 8.96446 8.96431 8.12499 9.99984 8.12499C11.0354 8.12499 11.8748 8.96446 11.8748 9.99999C11.8748 11.0355 11.0354 11.875 9.99984 11.875C8.96431 11.875 8.12484 11.0355 8.12484 9.99999Z" fill="#1F2229"/>
<path fill-rule="evenodd" clip-rule="evenodd" d="M9.99984 2.70833C8.21571 2.70833 6.60255 3.59082 5.29295 4.66309C3.9762 5.74121 2.89952 7.06554 2.17602 8.07334L2.11635 8.15632C1.6808 8.76152 1.32227 9.25971 1.32227 9.99999C1.32227 10.7403 1.6808 11.2385 2.11635 11.8437L2.17602 11.9267C2.89952 12.9345 3.9762 14.2588 5.29295 15.3369C6.60255 16.4092 8.21571 17.2917 9.99984 17.2917C11.784 17.2917 13.3971 16.4092 14.7067 15.3369C16.0235 14.2588 17.1002 12.9345 17.8237 11.9267L17.8833 11.8437C18.3189 11.2385 18.6774 10.7403 18.6774 9.99999C18.6774 9.25971 18.3189 8.76153 17.8833 8.15632L17.8237 8.07334C17.1002 7.06554 16.0235 5.74121 14.7067 4.66309C13.3971 3.59082 11.784 2.70833 9.99984 2.70833ZM3.19145 8.80232C3.8825 7.83971 4.88607 6.61178 6.08484 5.63025C7.29076 4.64288 8.62837 3.95833 9.99984 3.95833C11.3713 3.95833 12.7089 4.64288 13.9148 5.63025C15.1136 6.61178 16.1172 7.83971 16.8082 8.80231C17.3282 9.52661 17.4274 9.70122 17.4274 9.99999C17.4274 10.2988 17.3282 10.4734 16.8082 11.1977C16.1172 12.1603 15.1136 13.3882 13.9148 14.3697C12.7089 15.3571 11.3713 16.0417 9.99984 16.0417C8.62837 16.0417 7.29076 15.3571 6.08484 14.3697C4.88608 13.3882 3.8825 12.1603 3.19145 11.1977C2.67148 10.4734 2.57227 10.2988 2.57227 9.99999C2.57227 9.70122 2.67148 9.52661 3.19145 8.80232Z" fill="#1F2229"/>
</svg>
