<svg width="25" height="24" viewBox="0 0 25 24" fill="none" xmlns="http://www.w3.org/2000/svg">
<mask id="mask0_10502_141356" style="mask-type:luminance" maskUnits="userSpaceOnUse" x="0" y="0" width="25" height="24">
<path d="M24.8335 0H0.833496V24H24.8335V0Z" fill="white"/>
</mask>
<g mask="url(#mask0_10502_141356)">
<path d="M19.1433 16.96L7.86328 5.69L8.39328 4.62C8.64354 4.13686 9.02049 3.73087 9.48376 3.4455C9.94704 3.16014 10.4792 3.00614 11.0233 3C11.4095 2.99971 11.7919 3.07551 12.1488 3.22307C12.5057 3.37063 12.8301 3.58707 13.1033 3.86L20.9633 11.73C21.2431 11.9981 21.4669 12.3191 21.6214 12.6745C21.7759 13.0299 21.8581 13.4125 21.8633 13.8C21.8571 14.3441 21.7031 14.8762 21.4178 15.3395C21.1324 15.8028 20.7264 16.1797 20.2433 16.43L19.1433 16.96Z" fill="#D6D9FF"/>
<path fill-rule="evenodd" clip-rule="evenodd" d="M19.8635 16C19.8635 15.7348 19.7582 15.4804 19.5706 15.2929C19.3831 15.1054 19.1287 15 18.8635 15C18.5983 15 18.3439 15.1054 18.1564 15.2929C17.9689 15.4804 17.8635 15.7348 17.8635 16V19C17.8635 19.5304 17.6528 20.0391 17.2777 20.4142C16.9027 20.7893 16.394 21 15.8635 21H6.10352C5.8383 21 5.58394 21.1054 5.39641 21.2929C5.20887 21.4804 5.10352 21.7348 5.10352 22C5.10352 22.2652 5.20887 22.5196 5.39641 22.7071C5.58394 22.8946 5.8383 23 6.10352 23H15.8635C16.9244 23 17.9418 22.5786 18.6919 21.8284C19.4421 21.0783 19.8635 20.0609 19.8635 19V16Z" fill="#7694FF"/>
<path d="M18.8781 1.56769C18.9484 1.77708 18.9327 2.00581 18.8344 2.20364L18.4011 3.03697C18.3524 3.13594 18.2845 3.22426 18.2014 3.29679C18.1183 3.36933 18.0216 3.42464 17.917 3.45953C17.8123 3.49441 17.7018 3.50817 17.5918 3.50001C17.4818 3.49184 17.3745 3.46192 17.2761 3.41197C17.0828 3.30916 16.9376 3.13438 16.8721 2.92541C16.8066 2.71644 16.826 2.49009 16.9261 2.2953L17.3428 1.46197C17.4412 1.26424 17.6141 1.11367 17.8235 1.04336C18.0329 0.97304 18.2616 0.988728 18.4594 1.08697C18.6572 1.1854 18.8077 1.35831 18.8781 1.56769Z" fill="#FF7A00"/>
<path d="M22.6335 2.76649C22.5912 2.66494 22.5292 2.57277 22.4511 2.4953C22.295 2.3401 22.0838 2.25298 21.8636 2.25298C21.6435 2.25298 21.4322 2.3401 21.2761 2.4953L20.0261 3.7453C19.948 3.82277 19.886 3.91494 19.8437 4.01649C19.8014 4.11804 19.7796 4.22696 19.7796 4.33697C19.7796 4.44698 19.8014 4.5559 19.8437 4.65745C19.886 4.759 19.948 4.85117 20.0261 4.92864C20.1822 5.08385 20.3935 5.17096 20.6136 5.17096C20.8338 5.17096 21.045 5.08385 21.2011 4.92864L22.4511 3.67864C22.5292 3.60117 22.5912 3.509 22.6335 3.40745C22.6758 3.3059 22.6976 3.19698 22.6976 3.08697C22.6976 2.97696 22.6758 2.86804 22.6335 2.76649Z" fill="#FF7A00"/>
<path d="M23.9031 7.09792C23.8327 7.3073 23.6822 7.48021 23.4844 7.57864L22.6511 7.9953C22.4543 8.09415 22.2264 8.11106 22.0171 8.04236C21.8079 7.97365 21.6344 7.82491 21.5344 7.62864C21.4842 7.53078 21.4538 7.42395 21.4451 7.3143C21.4363 7.20465 21.4494 7.09435 21.4835 6.98976C21.5175 6.88518 21.572 6.78838 21.6437 6.70494C21.7154 6.62151 21.8029 6.55309 21.9011 6.50364L22.7344 6.08697C22.8328 6.03702 22.9401 6.0071 23.0501 5.99893C23.1601 5.99077 23.2706 6.00453 23.3753 6.03941C23.4799 6.0743 23.5766 6.12961 23.6597 6.20215C23.7429 6.27468 23.8107 6.363 23.8594 6.46197C23.9577 6.65979 23.9734 6.88853 23.9031 7.09792Z" fill="#FF7A00"/>
</g>
<path fill-rule="evenodd" clip-rule="evenodd" d="M11.0338 5C10.8593 5.00018 10.6884 5.04891 10.54 5.14075C10.3916 5.23259 10.2718 5.36391 10.1938 5.52L4.07382 17.77C3.91372 18.0789 3.83135 18.4221 3.83382 18.77C3.83382 19.0637 3.89183 19.3545 4.00452 19.6257C4.11721 19.8969 4.28237 20.1432 4.49051 20.3504C4.69864 20.5576 4.94565 20.7217 5.21737 20.8331C5.48908 20.9446 5.78013 21.0013 6.07382 21C6.42014 20.9989 6.76183 20.9203 7.07382 20.77L19.3138 14.64C19.4763 14.5673 19.6144 14.4495 19.7119 14.3006C19.8094 14.1517 19.8621 13.978 19.8638 13.8C19.858 13.5543 19.7619 13.3193 19.5938 13.14L11.7238 5.27C11.5478 5.09681 11.3107 4.99982 11.0638 5H11.0338ZM11.0338 3C11.42 2.99971 11.8025 3.07551 12.1594 3.22307C12.5163 3.37063 12.8406 3.58707 13.1138 3.86L20.9738 11.73C21.2519 11.9989 21.4737 12.3203 21.6265 12.6757C21.7793 13.031 21.86 13.4132 21.8638 13.8C21.8577 14.3441 21.7037 14.8762 21.4183 15.3395C21.133 15.8028 20.727 16.1797 20.2438 16.43L7.96382 22.55C7.37883 22.8489 6.73073 23.0032 6.07382 23C4.95624 22.9921 3.88697 22.5433 3.09858 21.7511C2.31018 20.959 1.86643 19.8876 1.86382 18.77C1.86057 18.1099 2.01484 17.4585 2.31382 16.87L8.43382 4.62C8.68408 4.13686 9.06102 3.73087 9.5243 3.4455C9.98757 3.16014 10.5197 3.00614 11.0638 3H11.0338Z" fill="#2264DC"/>
</svg>
