<?xml version="1.0" encoding="UTF-8"?>
<svg width="40px" height="40px" viewBox="0 0 40 40" version="1.1" xmlns="http://www.w3.org/2000/svg" xmlns:xlink="http://www.w3.org/1999/xlink">
    <title>Group</title>
    <g id="Page-1" stroke="none" stroke-width="1" fill="none" fill-rule="evenodd">
        <g id="Group">
            <rect id="Rectangle" x="0" y="0" width="40" height="40"></rect>
            <g id="ic_arrow_circle_left" transform="translate(7.166500, 7.166670)">
                <path d="M12.8333,19.83253 C14.6898,19.83253 16.4703,19.09503 17.7831,17.78223 C19.0958,16.46953 19.8333,14.68903 19.8333,12.83253 L19.8333,2.07584 C21.6243,3.2414 23.0959,4.83574 24.1146,6.71416 C25.1333,8.59259 25.6667,10.69563 25.6667,12.83253 C25.6667,16.23613 24.3146,19.50033 21.9079,21.90703 C19.5011,24.31373 16.2369,25.66583 12.8333,25.66583 C10.6965,25.66583 8.59341,25.13243 6.71498,24.11373 C4.83655,23.09513 3.24222,21.62353 2.07666,19.83253 L12.8333,19.83253 Z" id="Path" fill="#D6D9FF"></path>
                <path d="M12.8333,2.33334 C10.0486,2.33334 7.37785,3.43957 5.40872,5.40871 C3.43959,7.37784 2.33334,10.04853 2.33334,12.83334 C2.33334,15.61813 3.43959,18.28883 5.40872,20.25793 C7.37785,22.22713 10.0486,23.33334 12.8333,23.33334 C15.6181,23.33334 18.2888,22.22713 20.258,20.25793 C22.2271,18.28883 23.3333,15.61813 23.3333,12.83334 C23.3333,10.04853 22.2271,7.37784 20.258,5.40871 C18.2888,3.43957 15.6181,2.33334 12.8333,2.33334 Z M0,12.83333 C0,9.42973 1.35208,6.16552 3.7588,3.75881 C6.16552,1.35209 9.4297,0 12.8333,0 C16.237,0 19.5012,1.35209 21.9079,3.75881 C24.3146,6.16552 25.6667,9.42973 25.6667,12.83333 C25.6667,16.23693 24.3146,19.50113 21.9079,21.90783 C19.5012,24.31463 16.237,25.66663 12.8333,25.66663 C9.4297,25.66663 6.16552,24.31463 3.7588,21.90783 C1.35208,19.50113 0,16.23693 0,12.83333 Z" id="Shape" fill="#2264DC"></path>
                <path d="M15.9953,19.49493 C15.8868,19.60433 15.7578,19.69103 15.6156,19.75033 C15.4734,19.80953 15.3209,19.84003 15.1669,19.84003 C15.0129,19.84003 14.8604,19.80953 14.7183,19.75033 C14.5761,19.69103 14.447,19.60433 14.3386,19.49493 L8.50526,13.66163 C8.39591,13.55313 8.30911,13.42413 8.24988,13.28193 C8.19065,13.13973 8.16016,12.98723 8.16016,12.83323 C8.16016,12.67923 8.19065,12.52673 8.24988,12.38453 C8.30911,12.24243 8.39591,12.11333 8.50526,12.00493 L14.3386,6.17158 C14.447,6.06223 14.5761,5.97545 14.7183,5.91622 C14.8604,5.85699 15.0129,5.82649 15.1669,5.82649 C15.3209,5.82649 15.4734,5.85699 15.6156,5.91622 C15.7578,5.97545 15.8868,6.06223 15.9953,6.17158 C16.1046,6.28004 16.1914,6.40908 16.2506,6.55125 C16.3099,6.69341 16.3404,6.84591 16.3404,6.99993 C16.3404,7.15394 16.3099,7.30644 16.2506,7.44861 C16.1914,7.59077 16.1046,7.71981 15.9953,7.82827 L10.9786,12.83323 L15.9953,17.83823 C16.1046,17.94673 16.1914,18.07573 16.2506,18.21793 C16.3099,18.36013 16.3404,18.51253 16.3404,18.66663 C16.3404,18.82063 16.3099,18.97313 16.2506,19.11523 C16.1914,19.25743 16.1046,19.38643 15.9953,19.49493 Z" id="Path" fill="#7694FF"></path>
            </g>
        </g>
    </g>
</svg>