<svg width="20" height="20" viewBox="0 0 20 20" fill="none" xmlns="http://www.w3.org/2000/svg">
<path d="M9.99992 2.5002C7.92621 2.48667 5.90685 3.16292 4.25951 4.42256C2.61216 5.68221 1.43033 7.45376 0.89992 9.45853C0.856736 9.63589 0.834362 9.81767 0.833252 10.0002C0.834362 10.1827 0.856736 10.3645 0.89992 10.5419C1.43033 12.5466 2.61216 14.3182 4.25951 15.5778C5.90685 16.8375 7.92621 17.5137 9.99992 17.5002V12.5002C9.33688 12.5002 8.70099 12.2368 8.23215 11.768C7.76331 11.2991 7.49992 10.6632 7.49992 10.0002C7.49992 9.33716 7.76331 8.70127 8.23215 8.23243C8.70099 7.76359 9.33688 7.5002 9.99992 7.5002V2.5002Z" fill="#D6D9FF"/>
<path fill-rule="evenodd" clip-rule="evenodd" d="M9.99992 4.16687C8.29446 4.14978 6.63179 4.70064 5.2739 5.73263C3.91601 6.76463 2.94009 8.2191 2.49992 9.86687C2.49177 9.91094 2.49177 9.95613 2.49992 10.0002C2.49177 10.0443 2.49177 10.0895 2.49992 10.1335C2.94009 11.7813 3.91601 13.2358 5.2739 14.2678C6.63179 15.2998 8.29446 15.8506 9.99992 15.8335C11.7054 15.8506 13.368 15.2998 14.7259 14.2678C16.0838 13.2358 17.0597 11.7813 17.4999 10.1335C17.5081 10.0895 17.5081 10.0443 17.4999 10.0002C17.5081 9.95613 17.5081 9.91094 17.4999 9.86687C17.0597 8.2191 16.0838 6.76463 14.7259 5.73263C13.368 4.70064 11.7054 4.14978 9.99992 4.16687ZM0.89992 9.45853C1.43033 7.45376 2.61216 5.68221 4.2595 4.42256C5.90685 3.16292 7.92621 2.48667 9.99992 2.5002C12.0736 2.48667 14.093 3.16292 15.7403 4.42256C17.3877 5.68221 18.5695 7.45376 19.0999 9.45853C19.1431 9.63589 19.1655 9.81767 19.1666 10.0002C19.1655 10.1827 19.1431 10.3645 19.0999 10.5419C18.5695 12.5466 17.3877 14.3182 15.7403 15.5778C14.093 16.8375 12.0736 17.5137 9.99992 17.5002C7.92621 17.5137 5.90685 16.8375 4.2595 15.5778C2.61216 14.3182 1.43033 12.5466 0.89992 10.5419C0.856736 10.3645 0.834362 10.1827 0.833252 10.0002C0.834362 9.81767 0.856736 9.63589 0.89992 9.45853Z" fill="#2264DC"/>
<path fill-rule="evenodd" clip-rule="evenodd" d="M9.99992 5.83333C8.89485 5.83333 7.83504 6.27232 7.05364 7.05372C6.27224 7.83512 5.83325 8.89493 5.83325 10C5.83325 11.1051 6.27224 12.1649 7.05364 12.9463C7.83504 13.7277 8.89485 14.1667 9.99992 14.1667C11.105 14.1667 12.1648 13.7277 12.9462 12.9463C13.7276 12.1649 14.1666 11.1051 14.1666 10C14.1666 8.89493 13.7276 7.83512 12.9462 7.05372C12.1648 6.27232 11.105 5.83333 9.99992 5.83333ZM9.99992 12.5C10.663 12.5 11.2988 12.2366 11.7677 11.7678C12.2365 11.2989 12.4999 10.663 12.4999 10C12.4999 9.33695 12.2365 8.70107 11.7677 8.23223C11.2988 7.76339 10.663 7.49999 9.99992 7.49999C9.33688 7.49999 8.70099 7.76339 8.23215 8.23223C7.76331 8.70107 7.49992 9.33695 7.49992 10C7.49992 10.663 7.76331 11.2989 8.23215 11.7678C8.70099 12.2366 9.33688 12.5 9.99992 12.5Z" fill="#FF7A00"/>
</svg>
