<svg width="33" height="32" viewBox="0 0 33 32" fill="none" xmlns="http://www.w3.org/2000/svg">
<path fill-rule="evenodd" clip-rule="evenodd" d="M6.48694 22.5063C7.83242 24.574 9.86176 26.1031 12.2203 26.8263V26.6663C12.2162 25.8782 12.4383 25.1054 12.8603 24.4397C13.151 23.9538 13.5371 23.532 13.9955 23.1997C14.4538 22.8674 14.9748 22.6315 15.5269 22.5063H6.48694ZM22.9403 16.653C22.933 16.5821 22.933 16.5106 22.9403 16.4397C22.6874 17.9431 21.968 19.3288 20.884 20.4008C19.8001 21.4728 18.4064 22.1768 16.9003 22.413C17.5185 22.4604 18.1184 22.6455 18.6559 22.9546C19.1934 23.2638 19.655 23.6891 20.0069 24.1997C22.1358 23.3092 23.8304 21.6193 24.7269 19.493C24.251 19.1666 23.847 18.7463 23.5397 18.2579C23.2324 17.7694 23.0284 17.2233 22.9403 16.653ZM23.0203 5.98633V14.9597C23.1159 14.5325 23.2875 14.1261 23.5269 13.7597C23.8743 13.1676 24.3648 12.6725 24.9536 12.3197C25.622 11.918 26.3872 11.706 27.1669 11.7063H27.5536C26.6761 9.37701 25.0907 7.38126 23.0203 5.99965V5.98633Z" fill="#D6D9FF"/>
<path d="M26.8334 17.5996C27.1101 17.6599 27.3966 17.6599 27.6734 17.5996C27.3974 17.6664 27.1094 17.6664 26.8334 17.5996Z" fill="#2264DC"/>
<path d="M28.033 20.1855C27.4104 21.8679 26.4299 23.395 25.1591 24.6612C23.8883 25.9273 22.3577 26.9024 20.673 27.5189V27.3322C20.6804 27.2123 20.6804 27.0921 20.673 26.9722C20.68 26.8701 20.68 26.7676 20.673 26.6655C20.6771 25.8774 20.455 25.1046 20.0331 24.4389L19.873 24.1989C22.0019 23.3084 23.6966 21.6185 24.5931 19.4922L24.833 19.6522C25.5017 20.066 26.2734 20.2832 27.0597 20.2788H27.3664C27.4859 20.2934 27.6068 20.2934 27.7264 20.2788L28.033 20.1855Z" fill="#2264DC"/>
<path d="M12.2198 26.6648V26.8248C12.2111 26.9891 12.2111 27.1538 12.2198 27.3181C12.2198 27.3848 12.2198 27.4381 12.2198 27.5048C10.5434 26.8856 9.02109 25.9107 7.75747 24.6471C6.49384 23.3835 5.51893 21.8611 4.89978 20.1848H5.08645C5.30812 20.2068 5.53144 20.2068 5.75311 20.1848C6.5457 20.1906 7.32325 19.9685 7.99311 19.5448C8.07403 19.4995 8.14999 19.4458 8.21978 19.3848C9.11219 21.5169 10.8076 23.2124 12.9398 24.1048L12.7798 24.3448C12.3683 25.0459 12.1735 25.8531 12.2198 26.6648Z" fill="#2264DC"/>
<path d="M6.24678 14.4257C5.94537 14.3454 5.62819 14.3454 5.32678 14.4257C5.49032 14.3722 5.66137 14.3452 5.83345 14.3457C5.97514 14.345 6.11558 14.3722 6.24678 14.4257Z" fill="#2264DC"/>
<path d="M13.0202 7.79812C10.888 8.69053 9.1926 10.386 8.30019 12.5181L8.06019 12.3581C7.39447 11.9362 6.62169 11.7141 5.83353 11.7181C5.61633 11.6955 5.39739 11.6955 5.1802 11.7181H4.99353C5.61027 10.0388 6.58418 8.51349 7.84799 7.24738C9.11181 5.98126 10.6354 5.00456 12.3135 4.38477C12.3073 4.44683 12.3073 4.50937 12.3135 4.57143C12.2915 4.79311 12.2915 5.01642 12.3135 5.2381C12.291 5.45529 12.291 5.67425 12.3135 5.89144C12.4018 6.44783 12.5965 6.98202 12.8869 7.46478L13.0202 7.79812Z" fill="#2264DC"/>
<path d="M20.14 24.4409L19.98 24.2009C19.6281 23.6904 19.1665 23.265 18.6289 22.9559C18.0914 22.6467 17.4916 22.4617 16.8734 22.4142C16.7493 22.401 16.6241 22.401 16.5 22.4142C16.1763 22.4139 15.8537 22.4542 15.54 22.5342C14.5167 22.761 13.6167 23.3658 13.02 24.2276L12.86 24.4676C12.4381 25.1333 12.216 25.9061 12.22 26.6942V26.8542C12.2113 27.0186 12.2113 27.1832 12.22 27.3476C12.22 27.4142 12.22 27.4676 12.22 27.5342C12.4096 28.5072 12.9329 29.3834 13.6998 30.0115C14.4667 30.6396 15.4288 30.9801 16.42 30.9742C17.4068 30.9822 18.3651 30.6436 19.1278 30.0173C19.8905 29.3911 20.4091 28.517 20.5934 27.5476V27.3609C20.6008 27.241 20.6008 27.1208 20.5934 27.0009C20.6003 26.8988 20.6003 26.7963 20.5934 26.6942C20.6591 25.9153 20.5018 25.1338 20.14 24.4409ZM17.8334 27.6142C17.6849 27.8301 17.4856 28.0063 17.2532 28.1272C17.0207 28.2481 16.7621 28.31 16.5 28.3076C16.2384 28.3077 15.9806 28.2448 15.7485 28.1241C15.5164 28.0034 15.3168 27.8285 15.1667 27.6142C14.9781 27.3343 14.8761 27.0051 14.8734 26.6676C14.8624 26.4139 14.9109 26.1612 15.0151 25.9297C15.1193 25.6982 15.2762 25.4942 15.4734 25.3342C15.7658 25.0922 16.1338 24.9602 16.5134 24.9609C16.893 24.9602 17.2609 25.0922 17.5534 25.3342C17.7505 25.4942 17.9074 25.6982 18.0116 25.9297C18.1158 26.1612 18.1643 26.4139 18.1534 26.6676C18.1478 27.0087 18.0359 27.3396 17.8334 27.6142Z" fill="#7694FF"/>
<path d="M20.7268 4.68075V4.49408C20.6233 4.0213 20.4383 3.57013 20.1801 3.16075C19.8014 2.53414 19.2674 2.01591 18.6297 1.65619C17.992 1.29647 17.2723 1.10745 16.5401 1.10742C15.8062 1.10774 15.0847 1.29677 14.445 1.65635C13.8052 2.01593 13.2686 2.53398 12.8868 3.16075C12.6336 3.57116 12.4531 4.02224 12.3535 4.49408C12.3472 4.55615 12.3472 4.61868 12.3535 4.68075C12.3315 4.90242 12.3315 5.12573 12.3535 5.34741C12.3309 5.5646 12.3309 5.78356 12.3535 6.00075C12.4418 6.55715 12.6364 7.09131 12.9268 7.57408L13.1001 7.81409C13.4871 8.37848 14.0069 8.83906 14.6137 9.15527C15.2206 9.47149 15.8959 9.63364 16.5801 9.62742C17.2644 9.63364 17.9397 9.47149 18.5466 9.15527C19.1534 8.83906 19.6732 8.37848 20.0601 7.81409C20.118 7.73722 20.1715 7.65708 20.2201 7.57408C20.5184 7.09995 20.7137 6.56848 20.7935 6.01408C20.8158 5.79242 20.8158 5.56907 20.7935 5.34741C20.7944 5.12348 20.772 4.90007 20.7268 4.68075ZM17.8335 6.28076C17.7475 6.3895 17.654 6.49197 17.5535 6.58742C17.2561 6.82432 16.8871 6.95331 16.5068 6.95331C16.1266 6.95331 15.7576 6.82432 15.4601 6.58742C15.4051 6.55023 15.3557 6.50532 15.3135 6.45408L15.1935 6.32076C15.0049 6.04082 14.9029 5.71159 14.9001 5.37408C14.9001 5.02789 15.0124 4.69104 15.2201 4.41408C15.2891 4.31587 15.3697 4.22634 15.4601 4.14742C15.7526 3.90544 16.1205 3.77337 16.5001 3.77409C16.8823 3.77241 17.2519 3.90984 17.5401 4.16075C17.5952 4.19794 17.6446 4.24285 17.6868 4.29409C17.7389 4.35372 17.7879 4.41603 17.8335 4.48075C18.0353 4.74981 18.1431 5.07776 18.1401 5.41408C18.1226 5.7263 18.0162 6.02702 17.8335 6.28076Z" fill="#7694FF"/>
<path d="M27.4068 14.3872C27.2434 14.3605 27.0768 14.3605 26.9135 14.3872C26.9977 14.3797 27.0825 14.3797 27.1668 14.3872H27.4068Z" fill="#7694FF"/>
<path d="M28.0199 11.8126C27.9622 11.8064 27.9041 11.8064 27.8465 11.8126H27.5532H27.1665C26.3867 11.8123 25.6216 12.0243 24.9532 12.4259L24.7132 12.5993C23.8064 10.4753 22.1089 8.7874 19.9799 7.8926C20.0378 7.81574 20.0912 7.73561 20.1399 7.65261C20.4381 7.17848 20.6334 6.64702 20.7132 6.09261C20.7356 5.87095 20.7356 5.6476 20.7132 5.42594C20.7352 5.20872 20.7352 4.98982 20.7132 4.7726V4.58594C22.3817 5.18964 23.8992 6.14852 25.1607 7.39626C26.4223 8.644 27.3978 10.1508 28.0199 11.8126Z" fill="#2264DC"/>
<path d="M28.2599 14.7997L28.1133 14.6797H28.2066C28.2295 14.6886 28.248 14.7062 28.258 14.7287C28.2679 14.7512 28.2687 14.7767 28.2599 14.7997Z" fill="#7694FF"/>
<path d="M9.47343 13.7734C9.17765 13.2756 8.77731 12.848 8.30009 12.5201L8.06009 12.3601C7.39437 11.9381 6.62159 11.716 5.83343 11.7201C5.61624 11.6975 5.39729 11.6975 5.1801 11.7201H4.99343C4.41482 11.8306 3.86617 12.0625 3.38358 12.4003C2.90098 12.7381 2.49537 13.1742 2.19342 13.6801C1.7715 14.3458 1.54939 15.1186 1.55343 15.9067C1.53086 16.1239 1.53086 16.3429 1.55343 16.5601C1.68451 17.4243 2.07866 18.2271 2.68225 18.8593C3.28584 19.4915 4.06956 19.9224 4.92676 20.0934H5.11343C5.3351 20.1154 5.55842 20.1154 5.78009 20.0934C6.57268 20.0992 7.35024 19.8771 8.02009 19.4534C8.10101 19.4081 8.17697 19.3545 8.24676 19.2934C8.71838 18.9726 9.1175 18.5565 9.41835 18.0719C9.7192 17.5873 9.91512 17.045 9.99343 16.4801C10.0158 16.2584 10.0158 16.0351 9.99343 15.8134C9.99969 15.0998 9.82051 14.3969 9.47343 13.7734ZM7.16676 16.9467L7.08677 17.0534C6.81682 17.359 6.44567 17.5569 6.04152 17.6108C5.63736 17.6646 5.22734 17.5709 4.88676 17.3467C4.74045 17.227 4.60645 17.093 4.48676 16.9467C4.29822 16.6668 4.1962 16.3376 4.19342 16.0001C4.19322 15.7738 4.2406 15.5501 4.33248 15.3433C4.42436 15.1366 4.55869 14.9515 4.72676 14.8001H4.82009C4.94732 14.6992 5.09192 14.6223 5.24676 14.5734C5.4103 14.5199 5.58136 14.4929 5.75343 14.4934C5.88992 14.4668 6.03027 14.4668 6.16676 14.4934C6.30408 14.5162 6.4355 14.5661 6.55343 14.6401C6.63932 14.684 6.71985 14.7377 6.79343 14.8001C6.87868 14.8653 6.9549 14.9415 7.02009 15.0267C7.0822 15.0957 7.13592 15.1718 7.1801 15.2534C7.3174 15.5027 7.3907 15.7821 7.39343 16.0667C7.40227 16.3756 7.3237 16.6806 7.16676 16.9467Z" fill="#FF7A00"/>
<path d="M30.8069 13.7752C30.5071 13.2703 30.1037 12.8346 29.6235 12.4968C29.1432 12.159 28.5968 11.9267 28.0203 11.8152C27.9626 11.809 27.9045 11.809 27.8469 11.8152H27.5536H27.1669C26.3871 11.8148 25.622 12.0269 24.9536 12.4285L24.7136 12.6018C24.2191 12.9473 23.8127 13.404 23.5269 13.9352C23.2875 14.3016 23.1159 14.7081 23.0203 15.1352C22.9284 15.4696 22.8835 15.8151 22.8869 16.1618C22.8728 16.3082 22.8728 16.4555 22.8869 16.6018C22.8796 16.6728 22.8796 16.7443 22.8869 16.8152C22.9719 17.3833 23.1718 17.9282 23.4744 18.4165C23.777 18.9048 24.176 19.3262 24.6469 19.6552L24.8869 19.8152C25.5556 20.229 26.3273 20.4462 27.1136 20.4418H27.4203C27.5398 20.4564 27.6607 20.4564 27.7803 20.4418H27.9803C28.8357 20.2777 29.6183 19.8501 30.2184 19.2189C30.8186 18.5876 31.2062 17.7844 31.3269 16.9218C31.3716 16.7024 31.3939 16.4791 31.3936 16.2552C31.465 15.3873 31.2597 14.5191 30.8069 13.7752ZM28.5003 16.9485L28.3269 17.1485L28.1136 17.3218C27.9824 17.4242 27.8331 17.5011 27.6736 17.5485C27.3976 17.6153 27.1096 17.6153 26.8336 17.5485C26.7141 17.5272 26.5977 17.4914 26.4869 17.4418C26.2518 17.3254 26.0431 17.1621 25.8736 16.9618V16.8952C25.6851 16.6152 25.583 16.286 25.5803 15.9485C25.5801 15.5627 25.7172 15.1893 25.9669 14.8952C26.0312 14.8176 26.1026 14.7461 26.1803 14.6818C26.2492 14.6197 26.3253 14.566 26.4069 14.5218C26.6562 14.3845 26.9357 14.3112 27.2203 14.3085H27.4603C27.6274 14.3375 27.7892 14.3914 27.9403 14.4685L28.1536 14.6018H28.2469C28.4208 14.7492 28.5601 14.9332 28.6546 15.1407C28.7491 15.3481 28.7965 15.5739 28.7936 15.8019C28.842 16.2073 28.7374 16.6161 28.5003 16.9485Z" fill="#FF7A00"/>
</svg>
