<svg width="28" height="30" viewBox="0 0 28 30" fill="none" xmlns="http://www.w3.org/2000/svg">
<path fill-rule="evenodd" clip-rule="evenodd" d="M18.1249 17.6667C18.1249 18.0203 17.9844 18.3595 17.7344 18.6095C17.4843 18.8596 17.1452 19.0001 16.7915 19.0001H1.24488C0.943432 19.6235 0.788382 20.3076 0.791552 21.0001C0.791552 22.2377 1.28322 23.4247 2.15839 24.2999C3.03356 25.1751 4.22054 25.6667 5.45822 25.6667H22.7916C24.0292 25.6667 25.2162 25.1751 26.0914 24.2999C26.9665 23.4247 27.4582 22.2377 27.4582 21.0001C27.4727 19.8689 27.0745 18.7712 26.3383 17.9123C25.6021 17.0534 24.5783 16.4921 23.4582 16.3334V11.0001C23.4596 9.23262 22.9591 7.50112 22.0149 6.00699C21.0708 4.51286 19.7218 3.31753 18.1249 2.56006V17.6667Z" fill="#D6D9FF"/>
<path fill-rule="evenodd" clip-rule="evenodd" d="M14.1248 29.6667C12.9431 29.6659 11.7952 29.2726 10.8612 28.5486C9.9273 27.8246 9.26027 26.8109 8.96484 25.6667H11.8182C12.052 26.0717 12.3882 26.4081 12.7931 26.6421C13.1979 26.8762 13.6572 26.9996 14.1248 27.0001C14.5925 26.9996 15.0518 26.8762 15.4566 26.6421C15.8615 26.4081 16.1977 26.0717 16.4315 25.6667H19.2848C18.9894 26.8109 18.3224 27.8246 17.3884 28.5486C16.4545 29.2726 15.3065 29.6659 14.1248 29.6667Z" fill="#FF7A00"/>
<path fill-rule="evenodd" clip-rule="evenodd" d="M11.6582 2.00004C9.68561 2.54058 7.94521 3.7141 6.70459 5.34015C5.46398 6.9662 4.79183 8.95476 4.79151 11V16.3334C3.68062 16.4909 2.66406 17.0445 1.92904 17.8922C1.19402 18.74 0.790039 19.8247 0.791508 20.9467C0.791508 22.1844 1.28318 23.3714 2.15835 24.2465C3.03352 25.1217 4.2205 25.6134 5.45817 25.6134H22.7915C24.0292 25.6134 25.2162 25.1217 26.0913 24.2465C26.9665 23.3714 27.4582 22.1844 27.4582 20.9467C27.4596 19.8247 27.0557 18.74 26.3206 17.8922C25.5856 17.0445 24.5691 16.4909 23.4582 16.3334V11C23.4579 8.95476 22.7857 6.9662 21.5451 5.34015C20.3045 3.7141 18.5641 2.54058 16.5915 2.00004C16.463 1.66714 16.2627 1.36667 16.0048 1.12004C15.507 0.619252 14.8309 0.336351 14.1248 0.333374C13.4187 0.336351 12.7426 0.619252 12.2448 1.12004C11.987 1.36667 11.7866 1.66714 11.6582 2.00004ZM7.45817 11C7.45817 9.23193 8.16055 7.53623 9.41079 6.28599C10.661 5.03575 12.3567 4.33337 14.1248 4.33337C15.893 4.33337 17.5886 5.03575 18.8389 6.28599C20.0891 7.53623 20.7915 9.23193 20.7915 11V17.6667C20.7915 18.0203 20.932 18.3595 21.182 18.6095C21.4321 18.8596 21.7712 19 22.1248 19H22.7915C23.3219 19 23.8306 19.2108 24.2057 19.5858C24.5808 19.9609 24.7915 20.4696 24.7915 21C24.7915 21.5305 24.5808 22.0392 24.2057 22.4143C23.8306 22.7893 23.3219 23 22.7915 23H5.45817C4.92774 23 4.41904 22.7893 4.04397 22.4143C3.6689 22.0392 3.45817 21.5305 3.45817 21C3.45817 20.4696 3.6689 19.9609 4.04397 19.5858C4.41904 19.2108 4.92774 19 5.45817 19H6.12484C6.47846 19 6.8176 18.8596 7.06765 18.6095C7.3177 18.3595 7.45817 18.0203 7.45817 17.6667V11Z" fill="#2264DC"/>
</svg>
