<svg width="28" height="30" viewBox="0 0 28 30" fill="none" xmlns="http://www.w3.org/2000/svg">
<path fill-rule="evenodd" clip-rule="evenodd" d="M17.8749 17.6667C17.8749 18.0203 17.7344 18.3595 17.4844 18.6095C17.2343 18.8596 16.8952 19.0001 16.5415 19.0001H0.99488C0.693432 19.6235 0.538382 20.3076 0.541552 21.0001C0.541552 22.2377 1.03322 23.4247 1.90839 24.2999C2.78356 25.1751 3.97054 25.6667 5.20822 25.6667H22.5416C23.7792 25.6667 24.9662 25.1751 25.8414 24.2999C26.7165 23.4247 27.2082 22.2377 27.2082 21.0001C27.2227 19.8689 26.8245 18.7712 26.0883 17.9123C25.3521 17.0534 24.3283 16.4921 23.2082 16.3334V11.0001C23.2096 9.23262 22.7091 7.50112 21.7649 6.00699C20.8208 4.51286 19.4718 3.31753 17.8749 2.56006V17.6667Z" fill="#D9DDE5"/>
<path fill-rule="evenodd" clip-rule="evenodd" d="M13.8748 29.6667C12.6931 29.6659 11.5452 29.2726 10.6112 28.5486C9.6773 27.8246 9.01027 26.8109 8.71484 25.6667H11.5682C11.802 26.0717 12.1382 26.4081 12.5431 26.6421C12.9479 26.8762 13.4072 26.9996 13.8748 27.0001C14.3425 26.9996 14.8018 26.8762 15.2066 26.6421C15.6115 26.4081 15.9477 26.0717 16.1815 25.6667H19.0348C18.7394 26.8109 18.0724 27.8246 17.1384 28.5486C16.2045 29.2726 15.0565 29.6659 13.8748 29.6667Z" fill="#C0C7D4"/>
<path fill-rule="evenodd" clip-rule="evenodd" d="M11.4082 2.00004C9.43561 2.54058 7.69521 3.7141 6.45459 5.34015C5.21398 6.9662 4.54183 8.95476 4.54151 11V16.3334C3.43062 16.4909 2.41406 17.0445 1.67904 17.8922C0.94402 18.74 0.540039 19.8247 0.541508 20.9467C0.541508 22.1844 1.03318 23.3714 1.90835 24.2465C2.78352 25.1217 3.9705 25.6134 5.20817 25.6134H22.5415C23.7792 25.6134 24.9662 25.1217 25.8413 24.2465C26.7165 23.3714 27.2082 22.1844 27.2082 20.9467C27.2096 19.8247 26.8057 18.74 26.0706 17.8922C25.3356 17.0445 24.3191 16.4909 23.2082 16.3334V11C23.2079 8.95476 22.5357 6.9662 21.2951 5.34015C20.0545 3.7141 18.3141 2.54058 16.3415 2.00004C16.213 1.66714 16.0127 1.36667 15.7548 1.12004C15.257 0.619252 14.5809 0.336351 13.8748 0.333374C13.1687 0.336351 12.4926 0.619252 11.9948 1.12004C11.737 1.36667 11.5366 1.66714 11.4082 2.00004ZM7.20817 11C7.20817 9.23193 7.91055 7.53623 9.16079 6.28599C10.411 5.03575 12.1067 4.33337 13.8748 4.33337C15.643 4.33337 17.3386 5.03575 18.5889 6.28599C19.8391 7.53623 20.5415 9.23193 20.5415 11V17.6667C20.5415 18.0203 20.682 18.3595 20.932 18.6095C21.1821 18.8596 21.5212 19 21.8748 19H22.5415C23.0719 19 23.5806 19.2108 23.9557 19.5858C24.3308 19.9609 24.5415 20.4696 24.5415 21C24.5415 21.5305 24.3308 22.0392 23.9557 22.4143C23.5806 22.7893 23.0719 23 22.5415 23H5.20817C4.67774 23 4.16904 22.7893 3.79397 22.4143C3.4189 22.0392 3.20817 21.5305 3.20817 21C3.20817 20.4696 3.4189 19.9609 3.79397 19.5858C4.16904 19.2108 4.67774 19 5.20817 19H5.87484C6.22846 19 6.5676 18.8596 6.81765 18.6095C7.0677 18.3595 7.20817 18.0203 7.20817 17.6667V11Z" fill="#868E9C"/>
</svg>
