<svg width="26" height="26" viewBox="0 0 26 26" fill="none" xmlns="http://www.w3.org/2000/svg">
<path fill-rule="evenodd" clip-rule="evenodd" d="M21.7273 3C22.5953 3 23.4277 3.34768 24.0414 3.96655C24.6552 4.58542 25 5.42479 25 6.3V21.7C25 22.5752 24.6552 23.4146 24.0414 24.0335C23.4277 24.6523 22.5953 25 21.7273 25H4.27273C3.40475 25 2.57231 24.6523 1.95856 24.0335C1.3448 23.4146 1 22.5752 1 21.7V20.6H18.4545C18.7439 20.6 19.0214 20.4841 19.2259 20.2778C19.4305 20.0715 19.5455 19.7917 19.5455 19.5V3H21.7273Z" fill="#D6D9FF"/>
<path fill-rule="evenodd" clip-rule="evenodd" d="M22.3337 2.5C23.2619 2.5 24.1522 2.86876 24.8085 3.52513C25.4649 4.18151 25.8337 5.07174 25.8337 6V22.3333C25.8337 23.2616 25.4649 24.1518 24.8085 24.8082C24.1522 25.4646 23.2619 25.8333 22.3337 25.8333H3.66699C2.73873 25.8333 1.8485 25.4646 1.19212 24.8082C0.535741 24.1518 0.166992 23.2616 0.166992 22.3333V6C0.166992 5.07174 0.535741 4.18151 1.19212 3.52513C1.8485 2.86876 2.73873 2.5 3.66699 2.5H22.3337ZM23.5003 6V22.3333C23.5003 22.6428 23.3774 22.9395 23.1586 23.1583C22.9398 23.3771 22.6431 23.5 22.3337 23.5H3.66699C3.35757 23.5 3.06083 23.3771 2.84203 23.1583C2.62324 22.9395 2.50033 22.6428 2.50033 22.3333V6C2.50033 5.69058 2.62324 5.39383 2.84203 5.17504C3.06083 4.95625 3.35757 4.83333 3.66699 4.83333H22.3337C22.6431 4.83333 22.9398 4.95625 23.1586 5.17504C23.3774 5.39383 23.5003 5.69058 23.5003 6Z" fill="#2264DC"/>
<path fill-rule="evenodd" clip-rule="evenodd" d="M6.58398 13C7.04717 12.9969 7.49051 12.8116 7.81804 12.4841C8.14557 12.1565 8.33093 11.7132 8.33398 11.25C8.33398 10.7859 8.14961 10.3408 7.82142 10.0126C7.49323 9.68437 7.04811 9.5 6.58398 9.5C6.11986 9.5 5.67474 9.68437 5.34655 10.0126C5.01836 10.3408 4.83398 10.7859 4.83398 11.25C4.83398 11.7141 5.01836 12.1592 5.34655 12.4874C5.67474 12.8156 6.11986 13 6.58398 13ZM8.33398 18.25C8.33093 18.7132 8.14557 19.1565 7.81804 19.4841C7.49051 19.8116 7.04717 19.9969 6.58398 20C6.11986 20 5.67474 19.8156 5.34655 19.4874C5.01836 19.1592 4.83398 18.7141 4.83398 18.25C4.83398 17.7859 5.01836 17.3407 5.34655 17.0126C5.67474 16.6844 6.11986 16.5 6.58398 16.5C7.04811 16.5 7.49323 16.6844 7.82142 17.0126C8.14961 17.3407 8.33398 17.7859 8.33398 18.25ZM19.4173 13C19.8805 12.9969 20.3238 12.8116 20.6514 12.4841C20.9789 12.1565 21.1643 11.7132 21.1673 11.25C21.1673 10.7859 20.9829 10.3408 20.6548 10.0126C20.3266 9.68437 19.8814 9.5 19.4173 9.5C18.9532 9.5 18.5081 9.68437 18.1799 10.0126C17.8517 10.3408 17.6673 10.7859 17.6673 11.25C17.6673 11.7141 17.8517 12.1592 18.1799 12.4874C18.5081 12.8156 18.9532 13 19.4173 13Z" fill="#7694FF"/>
<path d="M14.235 12.4841C13.9075 12.8116 13.4642 12.9969 13.001 13C12.5368 13 12.0917 12.8156 11.7635 12.4874C11.4354 12.1592 11.251 11.7141 11.251 11.25C11.251 10.7859 11.4354 10.3408 11.7635 10.0126C12.0917 9.68437 12.5368 9.5 13.001 9.5C13.4651 9.5 13.9102 9.68437 14.2384 10.0126C14.5666 10.3408 14.751 10.7859 14.751 11.25C14.7479 11.7132 14.5626 12.1565 14.235 12.4841Z" fill="#FF7A00"/>
<path d="M14.235 19.4841C14.5626 19.1565 14.7479 18.7132 14.751 18.25C14.751 17.7859 14.5666 17.3408 14.2384 17.0126C13.9102 16.6844 13.4651 16.5 13.001 16.5C12.5368 16.5 12.0917 16.6844 11.7635 17.0126C11.4354 17.3408 11.251 17.7859 11.251 18.25C11.251 18.7141 11.4354 19.1592 11.7635 19.4874C12.0917 19.8156 12.5368 20 13.001 20C13.4642 19.9969 13.9075 19.8116 14.235 19.4841Z" fill="#7694FF"/>
<path d="M6.82561 0.341708C6.60682 0.122915 6.31007 0 6.00065 0C5.69123 0 5.39448 0.122915 5.17569 0.341708C4.9569 0.5605 4.83398 0.857247 4.83398 1.16667V4.66667C4.83398 4.97609 4.9569 5.27283 5.17569 5.49163C5.39448 5.71042 5.69123 5.83333 6.00065 5.83333C6.31007 5.83333 6.60682 5.71042 6.82561 5.49163C7.0444 5.27283 7.16732 4.97609 7.16732 4.66667V1.16667C7.16732 0.857247 7.0444 0.5605 6.82561 0.341708Z" fill="#FF7A00"/>
<path d="M20.8256 0.341708C20.6068 0.122915 20.3101 0 20.0007 0C19.6912 0 19.3945 0.122915 19.1757 0.341708C18.9569 0.5605 18.834 0.857247 18.834 1.16667V4.66667C18.834 4.97609 18.9569 5.27283 19.1757 5.49163C19.3945 5.71042 19.6912 5.83333 20.0007 5.83333C20.3101 5.83333 20.6068 5.71042 20.8256 5.49163C21.0444 5.27283 21.1673 4.97609 21.1673 4.66667V1.16667C21.1673 0.857247 21.0444 0.5605 20.8256 0.341708Z" fill="#FF7A00"/>
</svg>
