<svg width="28" height="28" viewBox="0 0 28 28" fill="none" xmlns="http://www.w3.org/2000/svg">
<mask id="mask0_10603_54236" style="mask-type:luminance" maskUnits="userSpaceOnUse" x="0" y="0" width="28" height="28">
<path d="M28 0H0V28H28V0Z" fill="white"/>
</mask>
<g mask="url(#mask0_10603_54236)">
<path fill-rule="evenodd" clip-rule="evenodd" d="M22.7273 4C23.5953 4 24.4277 4.34768 25.0414 4.96655C25.6552 5.58542 26 6.42479 26 7.3V22.7C26 23.5752 25.6552 24.4146 25.0414 25.0335C24.4277 25.6523 23.5953 26 22.7273 26H5.27273C4.40475 26 3.57231 25.6523 2.95856 25.0335C2.3448 24.4146 2 23.5752 2 22.7V21.6H19.4545C19.7439 21.6 20.0214 21.4841 20.2259 21.2778C20.4305 21.0715 20.5455 20.7917 20.5455 20.5V4H22.7273Z" fill="#D9DDE5"/>
<path fill-rule="evenodd" clip-rule="evenodd" d="M23.3337 3.5C24.2619 3.5 25.1522 3.86876 25.8085 4.52513C26.4649 5.18151 26.8337 6.07174 26.8337 7V23.3333C26.8337 24.2616 26.4649 25.1518 25.8085 25.8082C25.1522 26.4646 24.2619 26.8333 23.3337 26.8333H4.66699C3.73873 26.8333 2.8485 26.4646 2.19212 25.8082C1.53574 25.1518 1.16699 24.2616 1.16699 23.3333V7C1.16699 6.07174 1.53574 5.18151 2.19212 4.52513C2.8485 3.86876 3.73873 3.5 4.66699 3.5H23.3337ZM24.5003 7V23.3333C24.5003 23.6428 24.3774 23.9395 24.1586 24.1583C23.9398 24.3771 23.6431 24.5 23.3337 24.5H4.66699C4.35757 24.5 4.06083 24.3771 3.84203 24.1583C3.62324 23.9395 3.50033 23.6428 3.50033 23.3333V7C3.50033 6.69058 3.62324 6.39383 3.84203 6.17504C4.06083 5.95625 4.35757 5.83333 4.66699 5.83333H23.3337C23.6431 5.83333 23.9398 5.95625 24.1586 6.17504C24.3774 6.39383 24.5003 6.69058 24.5003 7Z" fill="#868E9C"/>
<path fill-rule="evenodd" clip-rule="evenodd" d="M7.58398 14C8.04717 13.9969 8.49051 13.8116 8.81804 13.4841C9.14557 13.1565 9.33093 12.7132 9.33398 12.25C9.33398 11.7859 9.14961 11.3408 8.82142 11.0126C8.49323 10.6844 8.04811 10.5 7.58398 10.5C7.11986 10.5 6.67474 10.6844 6.34655 11.0126C6.01836 11.3408 5.83398 11.7859 5.83398 12.25C5.83398 12.7141 6.01836 13.1592 6.34655 13.4874C6.67474 13.8156 7.11986 14 7.58398 14ZM9.33398 19.25C9.33093 19.7132 9.14557 20.1565 8.81804 20.4841C8.49051 20.8116 8.04717 20.9969 7.58398 21C7.11986 21 6.67474 20.8156 6.34655 20.4874C6.01836 20.1592 5.83398 19.7141 5.83398 19.25C5.83398 18.7859 6.01836 18.3407 6.34655 18.0126C6.67474 17.6844 7.11986 17.5 7.58398 17.5C8.04811 17.5 8.49323 17.6844 8.82142 18.0126C9.14961 18.3407 9.33398 18.7859 9.33398 19.25ZM20.4173 14C20.8805 13.9969 21.3238 13.8116 21.6514 13.4841C21.9789 13.1565 22.1643 12.7132 22.1673 12.25C22.1673 11.7859 21.9829 11.3408 21.6548 11.0126C21.3266 10.6844 20.8814 10.5 20.4173 10.5C19.9532 10.5 19.5081 10.6844 19.1799 11.0126C18.8517 11.3408 18.6673 11.7859 18.6673 12.25C18.6673 12.7141 18.8517 13.1592 19.1799 13.4874C19.5081 13.8156 19.9532 14 20.4173 14Z" fill="#C0C7D4"/>
<path d="M15.235 13.4841C14.9075 13.8116 14.4642 13.9969 14.001 14C13.5368 14 13.0917 13.8156 12.7635 13.4874C12.4354 13.1592 12.251 12.7141 12.251 12.25C12.251 11.7859 12.4354 11.3408 12.7635 11.0126C13.0917 10.6844 13.5368 10.5 14.001 10.5C14.4651 10.5 14.9102 10.6844 15.2384 11.0126C15.5666 11.3408 15.751 11.7859 15.751 12.25C15.7479 12.7132 15.5626 13.1565 15.235 13.4841Z" fill="#C0C7D4"/>
<path d="M15.235 20.4841C15.5626 20.1565 15.7479 19.7132 15.751 19.25C15.751 18.7859 15.5666 18.3408 15.2384 18.0126C14.9102 17.6844 14.4651 17.5 14.001 17.5C13.5368 17.5 13.0917 17.6844 12.7635 18.0126C12.4354 18.3408 12.251 18.7859 12.251 19.25C12.251 19.7141 12.4354 20.1592 12.7635 20.4874C13.0917 20.8156 13.5368 21 14.001 21C14.4642 20.9969 14.9075 20.8116 15.235 20.4841Z" fill="#C0C7D4"/>
<path d="M7.82561 1.34171C7.60682 1.12292 7.31007 1 7.00065 1C6.69123 1 6.39448 1.12292 6.17569 1.34171C5.9569 1.5605 5.83398 1.85725 5.83398 2.16667V5.66667C5.83398 5.97609 5.9569 6.27283 6.17569 6.49163C6.39448 6.71042 6.69123 6.83333 7.00065 6.83333C7.31007 6.83333 7.60682 6.71042 7.82561 6.49163C8.0444 6.27283 8.16732 5.97609 8.16732 5.66667V2.16667C8.16732 1.85725 8.0444 1.5605 7.82561 1.34171Z" fill="#C0C7D4"/>
<path d="M21.8256 1.34171C21.6068 1.12292 21.3101 1 21.0007 1C20.6912 1 20.3945 1.12292 20.1757 1.34171C19.9569 1.5605 19.834 1.85725 19.834 2.16667V5.66667C19.834 5.97609 19.9569 6.27283 20.1757 6.49163C20.3945 6.71042 20.6912 6.83333 21.0007 6.83333C21.3101 6.83333 21.6068 6.71042 21.8256 6.49163C22.0444 6.27283 22.1673 5.97609 22.1673 5.66667V2.16667C22.1673 1.85725 22.0444 1.5605 21.8256 1.34171Z" fill="#C0C7D4"/>
</g>
</svg>
