<svg width="28" height="28" viewBox="0 0 28 28" fill="none" xmlns="http://www.w3.org/2000/svg">
<mask id="mask0_10603_54402" style="mask-type:luminance" maskUnits="userSpaceOnUse" x="0" y="0" width="28" height="28">
<path d="M28 0H0V28H28V0Z" fill="white"/>
</mask>
<g mask="url(#mask0_10603_54402)">
<path fill-rule="evenodd" clip-rule="evenodd" d="M3.5 23.3322C3.49955 21.5732 4.06708 19.861 5.11814 18.4505C6.1692 17.0399 7.6476 16.0065 9.33333 15.5039V20.9989C9.33333 21.3083 9.45625 21.6051 9.67504 21.8239C9.89383 22.0427 10.1906 22.1656 10.5 22.1656H24.4183C24.475 22.5518 24.5023 22.9418 24.5 23.3322C24.5 24.2605 24.1313 25.1507 23.4749 25.8071C22.8185 26.4635 21.9283 26.8322 21 26.8322H7C6.07174 26.8322 5.1815 26.4635 4.52513 25.8071C3.86875 25.1507 3.5 24.2605 3.5 23.3322Z" fill="#D6D9FF"/>
<path fill-rule="evenodd" clip-rule="evenodd" d="M14.0003 3.49935C13.3081 3.49935 12.6314 3.70462 12.0558 4.08921C11.4803 4.47379 11.0317 5.02042 10.7667 5.65996C10.5018 6.2995 10.4325 7.00323 10.5676 7.68217C10.7026 8.3611 11.036 8.98474 11.5255 9.47423C12.0149 9.96371 12.6386 10.2971 13.3175 10.4321C13.9964 10.5671 14.7002 10.4978 15.3397 10.2329C15.9793 9.96802 16.5259 9.51942 16.9105 8.94385C17.2951 8.36828 17.5003 7.69159 17.5003 6.99935C17.5003 6.07109 17.1316 5.18085 16.4752 4.52448C15.8188 3.8681 14.9286 3.49935 14.0003 3.49935ZM8.16699 6.99935C8.16699 5.84563 8.50911 4.71781 9.15009 3.75853C9.79106 2.79924 10.7021 2.05157 11.768 1.61005C12.8339 1.16854 14.0068 1.05302 15.1384 1.2781C16.2699 1.50318 17.3093 2.05876 18.1251 2.87456C18.9409 3.69037 19.4965 4.72977 19.7216 5.86132C19.9467 6.99288 19.8311 8.16577 19.3896 9.23167C18.9481 10.2976 18.2004 11.2086 17.2412 11.8496C16.2819 12.4906 15.154 12.8327 14.0003 12.8327C12.4532 12.8327 10.9695 12.2181 9.87554 11.1241C8.78157 10.0302 8.16699 8.54645 8.16699 6.99935Z" fill="#FF7A00"/>
</g>
<path fill-rule="evenodd" clip-rule="evenodd" d="M3.5 23.3327C3.5 21.1667 4.36041 19.0895 5.89196 17.558C7.42351 16.0264 9.50073 15.166 11.6667 15.166H16.3333C18.4993 15.166 20.5765 16.0264 22.108 17.558C23.6396 19.0895 24.5 21.1667 24.5 23.3327C24.5 24.2609 24.1313 25.1512 23.4749 25.8076C22.8185 26.4639 21.9283 26.8327 21 26.8327H7C6.07174 26.8327 5.1815 26.4639 4.52513 25.8076C3.86875 25.1512 3.5 24.2609 3.5 23.3327ZM11.6667 17.4993C10.1196 17.4993 8.63584 18.1139 7.54188 19.2079C6.44791 20.3019 5.83333 21.7856 5.83333 23.3327C5.83333 23.6421 5.95625 23.9388 6.17504 24.1576C6.39383 24.3764 6.69058 24.4993 7 24.4993H21C21.3094 24.4993 21.6062 24.3764 21.825 24.1576C22.0438 23.9388 22.1667 23.6421 22.1667 23.3327C22.1667 21.7856 21.5521 20.3019 20.4581 19.2079C19.3642 18.1139 17.8804 17.4993 16.3333 17.4993H11.6667Z" fill="#2264DC"/>
</svg>
