<svg id="SvgjsSvg1035" width="288" height="288" xmlns="http://www.w3.org/2000/svg" version="1.1" xmlns:xlink="http://www.w3.org/1999/xlink" xmlns:svgjs="http://svgjs.com/svgjs"><defs id="SvgjsDefs1036"></defs><g id="SvgjsG1037"><svg xmlns="http://www.w3.org/2000/svg" viewBox="0 0 33.867 33.867" width="288" height="288"><path fill="#0066ff" d="M12.966 30.288c-2.593 2.592-10.156 3.09-11.317 1.93C.49 31.057.986 23.492 3.58 20.9c2.592-2.592 6.198-1.996 8.79.597 2.592 2.592 3.189 6.198.597 8.79z" paint-order="fill markers stroke" class="color06f svgShape"></path><path fill="#ffffff" d="M12.682 26.395c-1.439 1.44-5.637 1.715-6.281 1.071-.644-.644-.368-4.843 1.07-6.282 1.44-1.439 3.441-1.107 4.88.332 1.439 1.438 1.77 3.44.331 4.88z" paint-order="fill markers stroke" class="colorfff svgShape"></path><path fill="#00a1ff" d="m14.693 5.25 3.484.216-7.668 10.846-6.72-2.14c-1.729-.55-1.882-2.435-.407-3.395l7.089-4.61c1.476-.96 2.412-1.03 4.222-.918zm13.924 13.924-.217-3.485-10.845 7.668 2.14 6.721c.55 1.728 2.435 1.882 3.394.406l4.61-7.088c.96-1.476 1.03-2.413.918-4.222z" paint-order="fill markers stroke" class="color00a1ff svgShape"></path><path fill="#a8d0ff" d="M27.822 18.662c-5.721 5.722-13.184 7.536-16.669 4.051-3.484-3.484-1.67-10.947 4.051-16.669C20.926.323 30.273.392 31.874 1.994c1.6 1.6 1.67 10.947-4.052 16.668Z" paint-order="fill markers stroke" class="colora8d0ff svgShape"></path><path fill="#00a1ff" d="M16.058 17.809c.952.952 1.03 2.569 0 3.436l-4.838 3.78c-.515.403-1.43.956-2.382.004-.952-.952-.394-1.874.003-2.382l3.78-4.838c.868-1.03 2.485-.952 3.437 0z" paint-order="fill markers stroke" class="color00a1ff svgShape"></path><path fill="#ffffff" d="M23.707 10.16a4.23 4.23 0 0 1 0 5.982 4.23 4.23 0 0 1-5.982 0 4.23 4.23 0 0 1 0-5.982 4.23 4.23 0 0 1 5.982 0z" paint-order="fill markers stroke" class="colorfff svgShape"></path><path fill="#0066ff" d="M31.873 1.993c-1.059-1.06-5.51-1.446-10.059.07l9.99 9.99c1.516-4.549 1.129-9 .07-10.06z" paint-order="fill markers stroke" class="color06f svgShape"></path></svg></g></svg>