<svg width="20" height="20" viewBox="0 0 20 20" fill="none" xmlns="http://www.w3.org/2000/svg">
<mask id="mask0_11222_19912" style="mask-type:luminance" maskUnits="userSpaceOnUse" x="0" y="0" width="20" height="20">
<path d="M20 0H0V20H20V0Z" fill="white"/>
</mask>
<g mask="url(#mask0_11222_19912)">
<path fill-rule="evenodd" clip-rule="evenodd" d="M8.33333 11.6672C9.21739 11.6672 10.0652 11.316 10.6904 10.6909C11.3155 10.0658 11.6667 9.21791 11.6667 8.33385V1.61719C12.7336 2.1458 13.6593 2.92084 14.3673 3.8782C15.0753 4.83557 15.5451 5.94774 15.738 7.12271C15.9309 8.29769 15.8412 9.50171 15.4765 10.6352C15.1117 11.7686 14.4823 12.7989 13.6404 13.6409C12.7984 14.4828 11.7681 15.1122 10.6346 15.477C9.50119 15.8418 8.29717 15.9314 7.1222 15.7385C5.94722 15.5457 4.83505 15.0758 3.87768 14.3678C2.92032 13.6599 2.14528 12.7341 1.61667 11.6672H8.33333Z" fill="#D9DDE5"/>
<path fill-rule="evenodd" clip-rule="evenodd" d="M12.7417 12.7426C12.8191 12.6645 12.9113 12.6025 13.0129 12.5602C13.1144 12.5179 13.2233 12.4961 13.3333 12.4961C13.4434 12.4961 13.5523 12.5179 13.6538 12.5602C13.7554 12.6025 13.8475 12.6645 13.925 12.7426L18.925 17.7426C19.0027 17.8203 19.0643 17.9125 19.1064 18.0141C19.1484 18.1156 19.1701 18.2244 19.1701 18.3343C19.1701 18.4441 19.1484 18.5529 19.1064 18.6545C19.0643 18.756 19.0027 18.8482 18.925 18.9259C18.8473 19.0036 18.7551 19.0653 18.6536 19.1073C18.552 19.1494 18.4432 19.171 18.3333 19.171C18.2235 19.171 18.1147 19.1494 18.0131 19.1073C17.9116 19.0653 17.8194 19.0036 17.7417 18.9259L12.7417 13.9259C12.6636 13.8485 12.6016 13.7563 12.5593 13.6547C12.517 13.5532 12.4952 13.4443 12.4952 13.3343C12.4952 13.2242 12.517 13.1153 12.5593 13.0138C12.6016 12.9122 12.6636 12.8201 12.7417 12.7426Z" fill="#C0C7D4"/>
<path fill-rule="evenodd" clip-rule="evenodd" d="M8.33334 2.50065C7.17962 2.50065 6.0518 2.84277 5.09252 3.48375C4.13323 4.12472 3.38556 5.03577 2.94405 6.10167C2.50254 7.16757 2.38702 8.34046 2.6121 9.47201C2.83718 10.6036 3.39275 11.643 4.20855 12.4588C5.02436 13.2746 6.06376 13.8302 7.19532 14.0552C8.32687 14.2803 9.49976 14.1648 10.5657 13.7233C11.6316 13.2818 12.5426 12.5341 13.1836 11.5748C13.8246 10.6155 14.1667 9.48771 14.1667 8.33399C14.1667 6.78689 13.5521 5.30316 12.4581 4.2092C11.3642 3.11524 9.88044 2.50065 8.33334 2.50065ZM0.833344 8.33399C0.833344 6.85063 1.27321 5.40058 2.09732 4.16721C2.92143 2.93384 4.09277 1.97255 5.46322 1.40489C6.83366 0.837234 8.34166 0.688709 9.79652 0.978098C11.2514 1.26749 12.5877 1.98179 13.6366 3.03069C14.6855 4.07958 15.3998 5.41595 15.6892 6.87081C15.9786 8.32567 15.8301 9.83367 15.2624 11.2041C14.6948 12.5746 13.7335 13.7459 12.5001 14.57C11.2668 15.3941 9.8167 15.834 8.33334 15.834C6.34422 15.834 4.43657 15.0438 3.03004 13.6373C1.62352 12.2308 0.833344 10.3231 0.833344 8.33399Z" fill="#868E9C"/>
</g>
</svg>
